<?xml version="1.0" encoding="UTF-8" standalone="no"?>
<svg
   xmlns:dc="http://purl.org/dc/elements/1.1/"
   xmlns:cc="http://creativecommons.org/ns#"
   xmlns:rdf="http://www.w3.org/1999/02/22-rdf-syntax-ns#"
   xmlns:svg="http://www.w3.org/2000/svg"
   xmlns="http://www.w3.org/2000/svg"
   xmlns:sodipodi="http://sodipodi.sourceforge.net/DTD/sodipodi-0.dtd"
   xmlns:inkscape="http://www.inkscape.org/namespaces/inkscape"
   version="1.0"
   width="59.000000pt"
   height="59.000000pt"
   viewBox="0 0 59.000000 59.000000"
   preserveAspectRatio="xMidYMid meet"
   id="svg2"
   inkscape:version="0.91 r13725"
   sodipodi:docname="X-2.svg">
  <defs
     id="defs12" />
  <sodipodi:namedview
     pagecolor="#ffffff"
     bordercolor="#666666"
     borderopacity="1"
     objecttolerance="10"
     gridtolerance="10"
     guidetolerance="10"
     inkscape:pageopacity="0"
     inkscape:pageshadow="2"
     inkscape:window-width="640"
     inkscape:window-height="480"
     id="namedview10"
     showgrid="false"
     inkscape:zoom="3.2"
     inkscape:cx="36.875"
     inkscape:cy="36.875"
     inkscape:window-x="104"
     inkscape:window-y="110"
     inkscape:window-maximized="0"
     inkscape:current-layer="svg2" />
  <metadata
     id="metadata4">
Created by potrace 1.13, written by Peter Selinger 2001-2015
<rdf:RDF>
  <cc:Work
     rdf:about="">
    <dc:format>image/svg+xml</dc:format>
    <dc:type
       rdf:resource="http://purl.org/dc/dcmitype/StillImage" />
  </cc:Work>
</rdf:RDF>
</metadata>
  <g
     transform="translate(0.000000,59.000000) scale(0.100000,-0.100000)"
     fill="#000000"
     stroke="none"
     id="g6"
     style="fill:#3771c8">
    <path
       d="M107 514 c-4 -4 6 -21 21 -38 16 -17 50 -60 75 -96 38 -55 44 -69 35 -85 -6 -11 -14 -22 -18 -25 -13 -9 -130 -173 -130 -182 0 -4 20 -8 44 -8 41 0 48 4 80 44 20 23 36 47 36 52 1 19 41 56 55 51 8 -3 26 -25 41 -49 50 -77 74 -98 115 -98 21 0 40 4 43 8 3 5 -31 57 -75 116 l-80 108 28 41 c77 112 103 152 103 160 0 4 -19 7 -42 5 -39 -3 -45 -8 -84 -63 -23 -33 -48 -60 -55 -60 -7 0 -31 27 -54 60 -38 57 -43 60 -86 63 -24 2 -48 0 -52 -4z"
       id="path8"
       style="fill:#3771c8" />
  </g>
</svg>
