<?xml version="1.0" encoding="UTF-8" standalone="no"?>
<svg
   xmlns:dc="http://purl.org/dc/elements/1.1/"
   xmlns:cc="http://creativecommons.org/ns#"
   xmlns:rdf="http://www.w3.org/1999/02/22-rdf-syntax-ns#"
   xmlns:svg="http://www.w3.org/2000/svg"
   xmlns="http://www.w3.org/2000/svg"
   xmlns:sodipodi="http://sodipodi.sourceforge.net/DTD/sodipodi-0.dtd"
   xmlns:inkscape="http://www.inkscape.org/namespaces/inkscape"
   version="1.0"
   width="59.000000pt"
   height="59.000000pt"
   viewBox="0 0 59.000000 59.000000"
   preserveAspectRatio="xMidYMid meet"
   id="svg2"
   inkscape:version="0.91 r13725"
   sodipodi:docname="X-4.svg">
  <defs
     id="defs12" />
  <sodipodi:namedview
     pagecolor="#ffffff"
     bordercolor="#666666"
     borderopacity="1"
     objecttolerance="10"
     gridtolerance="10"
     guidetolerance="10"
     inkscape:pageopacity="0"
     inkscape:pageshadow="2"
     inkscape:window-width="640"
     inkscape:window-height="480"
     id="namedview10"
     showgrid="false"
     inkscape:zoom="3.2"
     inkscape:cx="36.875"
     inkscape:cy="36.875"
     inkscape:window-x="0"
     inkscape:window-y="0"
     inkscape:window-maximized="0"
     inkscape:current-layer="svg2" />
  <metadata
     id="metadata4">
Created by potrace 1.13, written by Peter Selinger 2001-2015
<rdf:RDF>
  <cc:Work
     rdf:about="">
    <dc:format>image/svg+xml</dc:format>
    <dc:type
       rdf:resource="http://purl.org/dc/dcmitype/StillImage" />
    <dc:title></dc:title>
  </cc:Work>
</rdf:RDF>
</metadata>
  <g
     transform="translate(0.000000,59.000000) scale(0.100000,-0.100000)"
     fill="#000000"
     stroke="none"
     id="g6"
     style="fill:#abc837">
    <path
       d="M128 522 c-16 -2 -28 -6 -28 -9 0 -3 14 -22 30 -42 35 -41 35 -41 79 -103 40 -56 39 -62 -30 -148 -25 -30 -57 -74 -71 -97 l-27 -42 28 -6 c46 -10 78 11 132 85 28 38 55 70 59 70 4 0 25 -26 47 -57 51 -73 72 -91 109 -98 58 -11 61 7 14 77 -24 34 -61 85 -81 111 l-38 48 69 101 c73 107 76 124 15 112 -37 -7 -70 -37 -97 -86 -32 -56 -44 -55 -85 10 -20 31 -37 58 -38 60 -6 8 -63 17 -87 14z"
       id="path8"
       style="fill:#abc837" />
  </g>
</svg>
